<svg width="38" height="38" viewBox="0 0 38 38" fill="none" xmlns="http://www.w3.org/2000/svg">
<g clip-path="url(#clip0_1128_1344)">
<path d="M27.6153 37.6533H0V38.0001H27.6153V37.6533Z" fill="#076EFF"/>
<path d="M27.6153 35.2588H0V35.6056H27.6153V35.2588Z" fill="#076EFF"/>
<path d="M27.6153 32.8643H0V33.2111H27.6153V32.8643Z" fill="#076EFF"/>
<path d="M27.6153 30.4697H0V30.8165H27.6153V30.4697Z" fill="#076EFF"/>
<path d="M27.6153 28.0752H0V28.422H27.6153V28.0752Z" fill="#076EFF"/>
<path d="M27.6153 25.6807H0V26.0275H27.6153V25.6807Z" fill="#076EFF"/>
<path d="M27.6153 23.2861H0V23.633H27.6153V23.2861Z" fill="#076EFF"/>
<path d="M27.6153 20.8916H0V21.2384H27.6153V20.8916Z" fill="#076EFF"/>
<path d="M27.6153 18.4971H0V18.8439H27.6153V18.4971Z" fill="#076EFF"/>
<path d="M27.6153 16.1025H0V16.4494H27.6153V16.1025Z" fill="#076EFF"/>
<path d="M27.6153 13.708H0V14.0548H27.6153V13.708Z" fill="#076EFF"/>
<path d="M29.6924 34.9111H2.07715V35.258H29.6924V34.9111Z" fill="#076EFF"/>
<path d="M29.6924 32.5166H2.07715V32.8634H29.6924V32.5166Z" fill="#076EFF"/>
<path d="M29.6924 30.1221H2.07715V30.4689H29.6924V30.1221Z" fill="#076EFF"/>
<path d="M29.6924 27.7275H2.07715V28.0744H29.6924V27.7275Z" fill="#076EFF"/>
<path d="M29.6924 25.333H2.07715V25.6798H29.6924V25.333Z" fill="#076EFF"/>
<path d="M29.6924 22.9385H2.07715V23.2853H29.6924V22.9385Z" fill="#076EFF"/>
<path d="M29.6924 20.5439H2.07715V20.8908H29.6924V20.5439Z" fill="#076EFF"/>
<path d="M29.6924 18.1494H2.07715V18.4962H29.6924V18.1494Z" fill="#076EFF"/>
<path d="M29.6924 15.7549H2.07715V16.1017H29.6924V15.7549Z" fill="#076EFF"/>
<path d="M29.6924 13.3604H2.07715V13.7072H29.6924V13.3604Z" fill="#076EFF"/>
<path d="M29.6924 10.9658H2.07715V11.3126H29.6924V10.9658Z" fill="#076EFF"/>
<path d="M31.7686 32.1699H4.15332V32.5167H31.7686V32.1699Z" fill="#076EFF"/>
<path d="M31.7686 29.7754H4.15332V30.1222H31.7686V29.7754Z" fill="#076EFF"/>
<path d="M31.7686 27.3809H4.15332V27.7277H31.7686V27.3809Z" fill="#076EFF"/>
<path d="M31.7686 24.9863H4.15332V25.3331H31.7686V24.9863Z" fill="#076EFF"/>
<path d="M31.7686 22.5918H4.15332V22.9386H31.7686V22.5918Z" fill="#076EFF"/>
<path d="M31.7686 20.1973H4.15332V20.5441H31.7686V20.1973Z" fill="#076EFF"/>
<path d="M31.7686 17.8027H4.15332V18.1496H31.7686V17.8027Z" fill="#076EFF"/>
<path d="M31.7686 15.4082H4.15332V15.755H31.7686V15.4082Z" fill="#076EFF"/>
<path d="M31.7686 13.0137H4.15332V13.3605H31.7686V13.0137Z" fill="#076EFF"/>
<path d="M31.7686 10.6191H4.15332V10.966H31.7686V10.6191Z" fill="#076EFF"/>
<path d="M31.7686 8.22461H4.15332V8.57143H31.7686V8.22461Z" fill="#076EFF"/>
<path d="M33.8458 29.4282H6.23047V29.775H33.8458V29.4282Z" fill="#076EFF"/>
<path d="M33.8458 27.0337H6.23047V27.3805H33.8458V27.0337Z" fill="#076EFF"/>
<path d="M33.8458 24.6396H6.23047V24.9865H33.8458V24.6396Z" fill="#076EFF"/>
<path d="M33.8458 22.2451H6.23047V22.5919H33.8458V22.2451Z" fill="#076EFF"/>
<path d="M33.8458 19.8506H6.23047V20.1974H33.8458V19.8506Z" fill="#076EFF"/>
<path d="M33.8458 17.4561H6.23047V17.8029H33.8458V17.4561Z" fill="#076EFF"/>
<path d="M33.8458 15.0615H6.23047V15.4083H33.8458V15.0615Z" fill="#076EFF"/>
<path d="M33.8458 12.667H6.23047V13.0138H33.8458V12.667Z" fill="#076EFF"/>
<path d="M33.8458 10.2725H6.23047V10.6193H33.8458V10.2725Z" fill="#076EFF"/>
<path d="M33.8458 7.87793H6.23047V8.22475H33.8458V7.87793Z" fill="#076EFF"/>
<path d="M33.8458 5.4834H6.23047V5.83022H33.8458V5.4834Z" fill="#076EFF"/>
<path d="M35.9229 26.6865H8.30762V27.0333H35.9229V26.6865Z" fill="#076EFF"/>
<path d="M35.9229 24.292H8.30762V24.6388H35.9229V24.292Z" fill="#076EFF"/>
<path d="M35.9229 21.8975H8.30762V22.2443H35.9229V21.8975Z" fill="#076EFF"/>
<path d="M35.9229 19.5029H8.30762V19.8497H35.9229V19.5029Z" fill="#076EFF"/>
<path d="M35.9229 17.1084H8.30762V17.4552H35.9229V17.1084Z" fill="#076EFF"/>
<path d="M35.9229 14.7139H8.30762V15.0607H35.9229V14.7139Z" fill="#076EFF"/>
<path d="M35.9229 12.3193H8.30762V12.6662H35.9229V12.3193Z" fill="#076EFF"/>
<path d="M35.9229 9.9248H8.30762V10.2716H35.9229V9.9248Z" fill="#076EFF"/>
<path d="M35.9229 7.53027H8.30762V7.87709H35.9229V7.53027Z" fill="#076EFF"/>
<path d="M35.9229 5.13574H8.30762V5.48256H35.9229V5.13574Z" fill="#076EFF"/>
<path d="M35.9229 2.74121H8.30762V3.08803H35.9229V2.74121Z" fill="#076EFF"/>
<path d="M38.0001 23.9453H10.3848V24.2921H38.0001V23.9453Z" fill="#076EFF"/>
<path d="M38.0001 21.5508H10.3848V21.8976H38.0001V21.5508Z" fill="#076EFF"/>
<path d="M38.0001 19.1562H10.3848V19.5031H38.0001V19.1562Z" fill="#076EFF"/>
<path d="M38.0001 16.7617H10.3848V17.1085H38.0001V16.7617Z" fill="#076EFF"/>
<path d="M38.0001 14.3672H10.3848V14.714H38.0001V14.3672Z" fill="#076EFF"/>
<path d="M38.0001 11.9727H10.3848V12.3195H38.0001V11.9727Z" fill="#076EFF"/>
<path d="M38.0001 9.57812H10.3848V9.92494H38.0001V9.57812Z" fill="#076EFF"/>
<path d="M38.0001 7.18359H10.3848V7.53041H38.0001V7.18359Z" fill="#076EFF"/>
<path d="M38.0001 4.78906H10.3848V5.13588H38.0001V4.78906Z" fill="#076EFF"/>
<path d="M38.0001 2.39453H10.3848V2.74135H38.0001V2.39453Z" fill="#076EFF"/>
<path d="M38.0001 0H10.3848V0.346817H38.0001V0Z" fill="#076EFF"/>
</g>
<defs>
<clipPath id="clip0_1128_1344">
<rect width="38" height="38" fill="white"/>
</clipPath>
</defs>
</svg>
